<?xml version="1.0" encoding="UTF-8" standalone="no"?>
<svg width="30px" height="30px" viewBox="0 0 30 30" version="1.1" xmlns="http://www.w3.org/2000/svg" xmlns:xlink="http://www.w3.org/1999/xlink" xmlns:sketch="http://www.bohemiancoding.com/sketch/ns">
    <!-- Generator: Sketch Beta 3.3.1 (12005) - http://www.bohemiancoding.com/sketch -->
    <title>article</title>
    <desc>Created with Sketch Beta.</desc>
    <defs></defs>
    <g id="Page-1" stroke="none" stroke-width="1" fill="none" fill-rule="evenodd" sketch:type="MSPage">
        <g id="detail-thumbnail" sketch:type="MSArtboardGroup" transform="translate(-187.000000, -51.000000)" fill="#6683C6">
            <g id="article" sketch:type="MSLayerGroup" transform="translate(187.000000, 51.000000)">
                <path d="M28,30 L1,30 C0.447,30 0,29.552 0,29 L0,15 C0,14.448 0.447,14 1,14 L4,14 L4,2 C4,0.897 4.897,0 6,0 L28,0 C29.103,0 30,0.897 30,2 L30,28 C30,29.103 29.103,30 28,30 L28,30 Z M2,28 L28,28 L28,2 L6,2 L6,24 C6,24.552 5.553,25 5,25 C4.447,25 4,24.552 4,24 L4,16 L2,16 L2,28 L2,28 Z" id="Shape" sketch:type="MSShapeGroup"></path>
                <path d="M25,21 L10,21 C9.724,21 9.5,21.224 9.5,21.5 C9.5,21.776 9.724,22 10,22 L25,22 C25.276,22 25.5,21.776 25.5,21.5 C25.5,21.224 25.276,21 25,21 Z M25,18 L10,18 C9.724,18 9.5,18.224 9.5,18.5 C9.5,18.776 9.724,19 10,19 L25,19 C25.276,19 25.5,18.776 25.5,18.5 C25.5,18.224 25.276,18 25,18 Z M25,15 L10,15 C9.724,15 9.5,15.224 9.5,15.5 C9.5,15.776 9.724,16 10,16 L25,16 C25.276,16 25.5,15.776 25.5,15.5 C25.5,15.224 25.276,15 25,15 Z M25,12 L10,12 C9.724,12 9.5,12.224 9.5,12.5 C9.5,12.776 9.724,13 10,13 L25,13 C25.276,13 25.5,12.776 25.5,12.5 C25.5,12.224 25.276,12 25,12 Z M25,9 L10,9 C9.724,9 9.5,9.224 9.5,9.5 C9.5,9.776 9.724,10 10,10 L25,10 C25.276,10 25.5,9.776 25.5,9.5 C25.5,9.224 25.276,9 25,9 Z M10,7 L25,7 C25.276,7 25.5,6.776 25.5,6.5 C25.5,6.224 25.276,6 25,6 L10,6 C9.724,6 9.5,6.224 9.5,6.5 C9.5,6.776 9.724,7 10,7 Z" id="Shape" opacity="0.5" sketch:type="MSShapeGroup"></path>
            </g>
        </g>
    </g>
</svg>